HIERARCHY
ROOT Hips
{
 OFFSET 0.000000 0.000000 0.000000
 CHANNELS 6 Xposition Yposition Zposition Yrotation Xrotation Zrotation
 JOINT Chest
 {
  OFFSET 0.000000 13.173100 -0.061900
  CHANNELS 3 Yrotation Xrotation Zrotation
  JOINT Chest2
  {
   OFFSET 0.000000 8.040800 0.126200
   CHANNELS 3 Yrotation Xrotation Zrotation
   JOINT Chest3
   {
    OFFSET 0.000000 7.994400 0.000000
    CHANNELS 3 Yrotation Xrotation Zrotation
    JOINT Chest4
    {
     OFFSET 0.000000 7.986200 0.000000
     CHANNELS 3 Yrotation Xrotation Zrotation
     JOINT Neck
     {
      OFFSET 0.000000 12.259400 0.000000
      CHANNELS 3 Yrotation Xrotation Zrotation
      JOINT Head
      {
       OFFSET 0.000000 7.518700 0.267100
       CHANNELS 3 Yrotation Xrotation Zrotation
       End Site
       {
        OFFSET 0.000000 13.617700 0.141000
       }
      }
     }
     JOINT RightCollar
     {
      OFFSET -2.983800 8.314300 0.000000
      CHANNELS 3 Yrotation Xrotation Zrotation
      JOINT RightShoulder
      {
       OFFSET -16.133400 0.000000 0.000000
       CHANNELS 3 Yrotation Xrotation Zrotation
       JOINT RightElbow
       {
        OFFSET 0.000000 -29.822100 0.000000
        CHANNELS 3 Yrotation Xrotation Zrotation
        JOINT RightWrist
        {
         OFFSET 0.000000 -24.437700 0.010900
         CHANNELS 3 Yrotation Xrotation Zrotation
         End Site
         {
          OFFSET 0.000000 -18.312300 0.000000
         }
        }
       }
      }
     }
     JOINT LeftCollar
     {
      OFFSET 2.983800 8.314300 0.000000
      CHANNELS 3 Yrotation Xrotation Zrotation
      JOINT LeftShoulder
      {
       OFFSET 16.133400 0.000000 0.000000
       CHANNELS 3 Yrotation Xrotation Zrotation
       JOINT LeftElbow
       {
        OFFSET 0.000000 -29.822100 0.000000
        CHANNELS 3 Yrotation Xrotation Zrotation
        JOINT LeftWrist
        {
         OFFSET 0.000000 -24.437700 0.010900
         CHANNELS 3 Yrotation Xrotation Zrotation
         End Site
         {
          OFFSET 0.000000 -18.312300 0.000000
         }
        }
       }
      }
     }
    }
   }
  }
 }
 JOINT RightHip
 {
  OFFSET -11.206700 0.306200 0.030900
  CHANNELS 3 Yrotation Xrotation Zrotation
  JOINT RightKnee
  {
   OFFSET 0.000000 -57.334900 0.009400
   CHANNELS 3 Yrotation Xrotation Zrotation
   JOINT RightAnkle
   {
    OFFSET 0.000000 -43.376200 0.036600
    CHANNELS 3 Yrotation Xrotation Zrotation
    JOINT RightToe
    {
     OFFSET 0.000000 -10.035500 18.363100
     CHANNELS 3 Yrotation Xrotation Zrotation
     End Site
     {
      OFFSET 0.000000 -1.618500 7.239000
     }
    }
   }
  }
 }
 JOINT LeftHip
 {
  OFFSET 11.206700 0.306200 0.030900
  CHANNELS 3 Yrotation Xrotation Zrotation
  JOINT LeftKnee
  {
   OFFSET 0.000000 -57.334900 0.009400
   CHANNELS 3 Yrotation Xrotation Zrotation
   JOINT LeftAnkle
   {
    OFFSET 0.000000 -43.376200 0.036600
    CHANNELS 3 Yrotation Xrotation Zrotation
    JOINT LeftToe
    {
     OFFSET 0.000000 -10.035500 18.363100
     CHANNELS 3 Yrotation Xrotation Zrotation
     End Site
     {
      OFFSET 0.000000 -1.618500 7.239000
     }
    }
   }
  }
 }
}
MOTION
Frames: 16
Frame Time: 0.008333
0.000000 110.232800 0.000000 0.000000 -5.767877 0.000000 0.000000 11.653817 0.000000 0.000000 -5.885947 0.000000 0.000000 -0.000000 0.000000 0.000000 -0.000000 0.000000 0.000000 12.528835 0.000000 0.000000 0.711642 0.000000 0.000000 -0.000000 0.000000 0.000000 0.000000 -90.000000 0.000000 -2.309062 0.000000 0.000000 2.309062 0.000000 0.000000 -0.000000 0.000000 0.000000 -0.000000 90.000000 0.000000 -2.309062 0.000000 0.000000 2.309062 0.000000 0.000000 8.520406 0.000000 0.000000 1.905762 0.000000 -0.000000 -4.658285 0.000000 0.000000 -0.000000 0.000000 0.000000 8.520406 0.000000 0.000000 1.905762 0.000000 -0.000000 -4.658285 0.000000 0.000000 -0.000000 0.000000
-72.649144 70.636614 39.489458 -169.380937 -30.845358 -11.624474 -2.258058 14.867017 7.006751 -2.087884 8.635004 1.534268 -2.573864 10.825747 1.868034 -2.083531 8.644634 1.531723 1.597855 20.017761 -0.531803 1.821470 -4.528820 -0.931338 7.180309 -0.357238 -1.232002 -3.912539 -19.675354 0.008724 65.260704 -38.594601 -51.176597 9.627411 15.193322 -10.372171 -10.679746 -1.871496 -6.010713 -6.370161 -17.752517 3.806956 -62.533412 -32.389281 58.395482 2.802441 -2.019031 -1.222432 -25.837423 -26.580704 4.700495 61.744030 86.872996 60.174874 2.354302 -27.609447 -4.052474 -1.424443 2.591157 -0.768273 -13.723184 -45.394282 9.980818 171.509901 72.235076 170.624469 0.695916 -24.008122 0.033300 -1.598014 -2.691079 -0.873831
-72.647715 70.640365 39.497710 -169.385355 -30.858580 -11.621473 -2.259988 14.864257 7.006433 -2.086114 8.640829 1.532230 -2.571152 10.830342 1.866818 -2.086160 8.647797 1.527793 1.598542 20.027515 -0.531136 1.822131 -4.516724 -0.928130 7.173405 -0.347939 -1.224291 -3.910125 -19.680127 0.022118 65.274197 -38.601771 -51.197247 9.621789 15.178866 -10.400419 -10.682648 -1.840947 -6.013002 -6.350908 -17.775077 3.778178 -62.556663 -32.360310 58.428454 2.794947 -2.024811 -1.222641 -25.823193 -26.576851 4.703879 61.680872 86.874625 60.113697 2.340290 -27.597737 -4.051356 -1.414716 2.580245 -0.764412 -13.707314 -45.388061 9.967039 171.470455 72.236374 170.591986 0.694171 -23.996879 0.032241 -1.599091 -2.698242 -0.875805
-72.647407 70.644653 39.506560 -169.380665 -30.872912 -11.617384 -2.268532 14.866487 7.000817 -2.086412 8.643863 1.530519 -2.574847 10.830615 1.861842 -2.083634 8.655688 1.525837 1.600920 20.032991 -0.530259 1.821143 -4.488012 -0.929185 7.174542 -0.345130 -1.219201 -3.910079 -19.681072 0.027428 65.278582 -38.616323 -51.210899 9.629068 15.177238 -10.407511 -10.685269 -1.821694 -6.014071 -6.325164 -17.792208 3.742871 -62.575851 -32.311915 58.481111 2.804981 -2.041656 -1.259080 -25.812118 -26.576983 4.703081 61.662662 86.885277 60.097843 2.319082 -27.578352 -4.047179 -1.397597 2.562674 -0.757311 -13.688640 -45.382201 9.945713 171.438838 72.238566 170.566434 0.685404 -23.983443 0.034399 -1.594174 -2.705614 -0.873931
-72.648278 70.650936 39.512772 -169.374647 -30.902585 -11.610792 -2.280875 14.870156 6.995284 -2.082809 8.665383 1.522270 -2.574740 10.834448 1.859901 -2.083944 8.656428 1.525008 1.600276 20.037088 -0.530631 1.822670 -4.487061 -0.929109 7.174316 -0.343841 -1.216312 -3.909772 -19.683450 0.032154 65.279478 -38.630686 -51.219016 9.617538 15.153257 -10.451972 -10.687438 -1.813019 -6.014566 -6.295101 -17.799705 3.702168 -62.553438 -32.256559 58.578475 2.795415 -2.093941 -1.350192 -25.798528 -26.558590 4.683597 61.615334 86.887989 60.052423 2.320629 -27.571351 -4.050342 -1.396732 2.558150 -0.755723 -13.660274 -45.357130 9.912905 171.414061 72.243024 170.546371 0.680751 -23.977956 0.036119 -1.589702 -2.708442 -0.871822
-72.648114 70.658011 39.517926 -169.372975 -30.935830 -11.607796 -2.279528 14.895755 6.990606 -2.082996 8.666816 1.521959 -2.576467 10.832756 1.858962 -2.084395 8.659840 1.522865 1.596127 20.050390 -0.531740 1.824327 -4.477968 -0.928860 7.176297 -0.339229 -1.215189 -3.909535 -19.688861 0.066123 65.288341 -38.614556 -51.237750 9.608576 15.127459 -10.499305 -10.688918 -1.801686 -6.015904 -6.234728 -17.803792 3.628459 -62.597683 -32.200063 58.648039 2.793221 -2.097117 -1.372107 -25.782911 -26.532533 4.667683 61.525103 86.887056 59.961166 2.326652 -27.565673 -4.048829 -1.403997 2.558206 -0.759812 -13.631021 -45.325926 9.888359 171.395751 72.247512 170.533344 0.673368 -23.975687 0.039139 -1.584255 -2.710005 -0.869324
-72.648208 70.663338 39.524978 -169.372896 -30.954616 -11.602312 -2.279914 14.907163 6.984138 -2.090257 8.647671 1.523860 -2.578320 10.837059 1.854470 -2.085897 8.663278 1.519334 1.603085 20.070048 -0.532778 1.814724 -4.440149 -0.932182 7.187013 -0.326985 -1.215343 -3.910743 -19.687950 0.079295 65.289399 -38.610652 -51.242397 9.609144 15.121075 -10.516029 -10.686256 -1.772284 -6.022420 -6.216331 -17.814709 3.614359 -62.600270 -32.184614 58.670256 2.794306 -2.105734 -1.388343 -25.762361 -26.524874 4.656884 61.472989 86.886179 59.913789 2.325670 -27.554933 -4.043583 -1.401593 2.553050 -0.762389 -13.614592 -45.310411 9.870048 171.379890 72.251759 170.520000 0.668014 -23.972492 0.037639 -1.578415 -2.709952 -0.866239
-72.650222 70.668150 39.531248 -169.365423 -30.970425 -11.594608 -2.299374 14.896193 6.973619 -2.084813 8.668708 1.517649 -2.580432 10.834710 1.851649 -2.087672 8.661334 1.517194 1.603483 20.086862 -0.531294 1.816067 -4.423470 -0.935145 7.186100 -0.324863 -1.214157 -3.904952 -19.683504 0.089262 65.289819 -38.603677 -51.242248 9.604507 15.111523 -10.533567 -10.686727 -1.749213 -6.027588 -6.197593 -17.826239 3.602936 -62.581682 -32.167455 58.707338 2.791746 -2.128990 -1.432995 -25.755121 -26.520077 4.642392 61.419033 86.893980 59.857013 2.331769 -27.548678 -4.040726 -1.405796 2.551004 -0.763068 -13.602088 -45.298830 9.845499 171.367535 72.256351 170.507342 0.661477 -23.965367 0.036959 -1.571728 -2.711761 -0.862325
-72.653991 70.673442 39.534979 -169.354328 -30.992361 -11.585334 -2.310610 14.914611 6.956807 -2.086523 8.665146 1.516346 -2.582204 10.829958 1.850305 -2.088517 8.662091 1.515454 1.598252 20.105708 -0.535558 1.823981 -4.419045 -0.933815 7.187345 -0.318058 -1.212970 -3.902412 -19.680025 0.093209 65.285445 -38.608811 -51.246548 9.598742 15.070275 -10.571630 -10.681903 -1.727861 -6.036251 -6.173136 -17.838026 3.581760 -62.568713 -32.144501 58.744971 2.784206 -2.156121 -1.472490 -25.746753 -26.511740 4.621264 61.394736 86.907913 59.829750 2.336493 -27.540548 -4.036062 -1.405542 2.542699 -0.761983 -13.587518 -45.279347 9.815291 171.371434 72.260717 170.508495 0.654364 -23.962317 0.037098 -1.562439 -2.712403 -0.857179
-72.657889 70.677544 39.539021 -169.345094 -31.005931 -11.576553 -2.324985 14.915324 6.942712 -2.087601 8.665515 1.514836 -2.583492 10.828408 1.845523 -2.086173 8.671574 1.516012 1.595715 20.113763 -0.537747 1.826776 -4.409611 -0.933179 7.187915 -0.315007 -1.212845 -3.898262 -19.686681 0.102035 65.279643 -38.604109 -51.242029 9.601742 15.069653 -10.575013 -10.686726 -1.719872 -6.041705 -6.126263 -17.851023 3.531081 -62.599350 -32.100978 58.769410 2.792945 -2.148572 -1.473911 -25.739228 -26.510080 4.602537 61.367341 86.920832 59.802945 2.344579 -27.535499 -4.034408 -1.405816 2.537595 -0.761429 -13.578727 -45.267441 9.791320 171.385752 72.265345 170.518137 0.651169 -23.962748 0.034854 -1.555054 -2.709316 -0.850316
-72.662152 70.681057 39.542430 -169.338130 -31.016687 -11.567590 -2.337741 14.904732 6.922815 -2.085641 8.676206 1.516754 -2.586172 10.828501 1.842393 -2.083585 8.678114 1.518468 1.593510 20.119882 -0.539771 1.822812 -4.379934 -0.934757 7.188567 -0.313639 -1.211402 -3.899499 -19.692814 0.109816 65.284030 -38.606440 -51.235827 9.605182 15.057879 -10.591425 -10.691265 -1.708125 -6.041720 -6.112327 -17.861167 3.519058 -62.586438 -32.087816 58.782307 2.792260 -2.157227 -1.490974 -25.731818 -26.512637 4.588537 61.380460 86.933935 59.817126 2.343339 -27.526908 -4.033145 -1.400402 2.527419 -0.757444 -13.572339 -45.258529 9.771049 171.402529 72.268127 170.528441 0.647540 -23.963498 0.034761 -1.546822 -2.706604 -0.844764
-72.665915 70.684559 39.544572 -169.332815 -31.028168 -11.562592 -2.345964 14.906775 6.911214 -2.086199 8.675477 1.514047 -2.586637 10.827346 1.841643 -2.085061 8.678165 1.514934 1.599483 20.132461 -0.534568 1.822605 -4.371903 -0.936627 7.190080 -0.311111 -1.200264 -3.894827 -19.695088 0.112500 65.279278 -38.597644 -51.227080 9.587679 15.011088 -10.627340 -10.688652 -1.693015 -6.037500 -6.101781 -17.867161 3.507197 -62.546822 -32.070566 58.800302 2.782590 -2.189141 -1.532326 -25.726770 -26.509976 4.577621 61.387615 86.943047 59.825282 2.344509 -27.522691 -4.035196 -1.397778 2.522034 -0.754356 -13.567965 -45.248834 9.757207 171.419092 72.268056 170.537807 0.644949 -23.963391 0.038892 -1.543791 -2.708158 -0.842865
-72.670113 70.688058 39.545386 -169.325809 -31.041330 -11.558666 -2.354272 14.909691 6.902188 -2.088524 8.675953 1.509465 -2.587169 10.824802 1.842920 -2.085944 8.678396 1.510811 1.601602 20.142704 -0.534944 1.825798 -4.366699 -0.934108 7.194135 -0.309351 -1.192017 -3.887880 -19.696496 0.111487 65.271767 -38.603684 -51.209886 9.585867 15.003903 -10.650282 -10.687718 -1.678248 -6.035093 -6.097196 -17.876043 3.492659 -62.523556 -32.046595 58.802699 2.780763 -2.208955 -1.548595 -25.722842 -26.503417 4.566525 61.411771 86.948913 59.849970 2.337349 -27.522835 -4.035416 -1.395921 2.519374 -0.751739 -13.561865 -45.238143 9.741420 171.428673 72.266258 170.541747 0.639763 -23.960751 0.044853 -1.538402 -2.712270 -0.842064
-72.673166 70.691061 39.546065 -169.315706 -31.049829 -11.561913 -2.362678 14.910611 6.900781 -2.091394 8.672884 1.507205 -2.591340 10.823300 1.842348 -2.083811 8.677659 1.506954 1.594534 20.140606 -0.536680 1.835846 -4.345805 -0.938043 7.197366 -0.301954 -1.185997 -3.887736 -19.698825 0.110511 65.267430 -38.621934 -51.195801 9.596999 15.010440 -10.660904 -10.689115 -1.664202 -6.033845 -6.085906 -17.889084 3.480899 -62.505960 -32.026324 58.795335 2.783639 -2.218062 -1.557941 -25.726424 -26.496763 4.561564 61.435100 86.949540 59.873230 2.335901 -27.522879 -4.036990 -1.395930 2.518066 -0.751168 -13.568800 -45.233029 9.735227 171.427110 72.261062 170.535286 0.637101 -23.953223 0.047647 -1.537180 -2.720202 -0.841476
-72.676826 70.693387 39.546680 -169.309930 -31.056001 -11.560450 -2.367601 14.914300 6.896445 -2.094639 8.662584 1.508100 -2.596274 10.823765 1.839708 -2.097517 8.661509 1.507088 1.605674 20.162320 -0.542093 1.834706 -4.342669 -0.939782 7.216248 -0.279214 -1.187163 -3.884422 -19.707328 0.110155 65.250823 -38.620663 -51.176034 9.594485 15.004452 -10.669233 -10.677314 -1.639167 -6.039818 -6.068698 -17.896738 3.470488 -62.502219 -32.016588 58.788162 2.777247 -2.224120 -1.561246 -25.722033 -26.498153 4.559800 61.487488 86.963039 59.923065 2.328769 -27.517571 -4.033806 -1.393244 2.509761 -0.747359 -13.567264 -45.231188 9.726267 171.424158 72.255440 170.526117 0.632932 -23.947253 0.053963 -1.538504 -2.726015 -0.841206
-72.679654 70.695182 39.547282 -169.310439 -31.059766 -11.559340 -2.368878 14.908069 6.894989 -2.097388 8.661598 1.506891 -2.596283 10.828533 1.839472 -2.103587 8.653397 1.507530 1.605570 20.164456 -0.545111 1.835799 -4.337749 -0.943754 7.224227 -0.272104 -1.189618 -3.879826 -19.726271 0.114756 65.224725 -38.610632 -51.143653 9.583653 14.988065 -10.686184 -10.679619 -1.630715 -6.038802 -6.058519 -17.918495 3.476425 -62.478560 -32.000653 58.760791 2.773847 -2.224113 -1.566900 -25.703747 -26.502671 4.559340 61.555981 86.967852 60.001975 2.312960 -27.509488 -4.034806 -1.385006 2.499754 -0.742708 -13.566678 -45.228647 9.724530 171.420364 72.250129 170.517724 0.626179 -23.951178 0.055327 -1.534094 -2.725083 -0.838295
